<svg width="585" height="461" viewBox="0 0 585 461" fill="none" xmlns="http://www.w3.org/2000/svg">
<path d="M530.533 423.382H12.5923C12.0141 423.382 11.5468 422.915 11.5468 422.337C11.5468 421.758 12.0141 421.291 12.5923 421.291H530.533C531.112 421.291 531.579 421.758 531.579 422.337C531.579 422.915 531.112 423.382 530.533 423.382Z" fill="#202135"/>
<path d="M502.67 61.4766V329.703C502.67 348.1 487.755 363.03 469.343 363.03H292.258C273.847 363.03 258.931 348.103 258.931 329.703V61.4766C258.931 43.0649 273.847 28.1492 292.258 28.1492H469.343C487.755 28.1492 502.67 43.0649 502.67 61.4766Z" fill="white"/>
<path d="M469.343 364.073H292.258C273.306 364.073 257.885 348.655 257.885 329.7V61.4767C257.885 42.5246 273.306 27.1036 292.258 27.1036H469.343C488.295 27.1036 503.716 42.5246 503.716 61.4767V329.703C503.716 348.655 488.295 364.073 469.343 364.073ZM292.258 29.1948C274.457 29.1948 259.976 43.6754 259.976 61.4767V329.703C259.976 347.501 274.457 361.982 292.258 361.982H469.343C487.144 361.982 501.625 347.501 501.625 329.703V61.4767C501.625 43.6754 487.144 29.1948 469.343 29.1948H292.258Z" fill="#202135"/>
<path d="M472.351 259.298H289.472C288.316 259.298 287.378 258.36 287.378 257.203V217.17C287.378 216.014 288.316 215.076 289.472 215.076H472.351C473.508 215.076 474.445 216.014 474.445 217.17V257.203C474.445 258.36 473.508 259.298 472.351 259.298Z" fill="white"/>
<path d="M464.442 260.343H297.378C291.286 260.343 286.33 255.387 286.33 249.294V225.076C286.33 218.984 291.286 214.028 297.378 214.028H464.442C470.535 214.028 475.491 218.984 475.491 225.076V249.294C475.491 255.387 470.535 260.343 464.442 260.343ZM297.378 216.122C292.44 216.122 288.421 220.138 288.421 225.079V249.297C288.421 254.236 292.44 258.255 297.378 258.255H464.442C469.381 258.255 473.4 254.239 473.4 249.297V225.079C473.4 220.141 469.381 216.122 464.442 216.122H297.378Z" fill="#202135"/>
<path d="M437.578 320.541H324.243C323.086 320.541 322.149 319.603 322.149 318.446V278.413C322.149 277.257 323.086 276.319 324.243 276.319H437.578C438.735 276.319 439.672 277.257 439.672 278.413V318.446C439.675 319.603 438.735 320.541 437.578 320.541Z" fill="#FE5E5E"/>
<path d="M429.672 321.586H332.152C326.059 321.586 321.103 316.63 321.103 310.537V286.322C321.103 280.23 326.059 275.274 332.152 275.274H429.672C435.764 275.274 440.721 280.23 440.721 286.322V310.537C440.721 316.63 435.764 321.586 429.672 321.586ZM332.152 277.365C327.213 277.365 323.194 281.384 323.194 286.322V310.537C323.194 315.476 327.213 319.495 332.152 319.495H429.672C434.611 319.495 438.63 315.476 438.63 310.537V286.322C438.63 281.384 434.611 277.365 429.672 277.365H332.152Z" fill="#FE5E5E"/>
<path d="M380.801 194.29C406.671 194.29 427.642 173.318 427.642 147.449C427.642 121.579 406.671 100.607 380.801 100.607C354.931 100.607 333.96 121.579 333.96 147.449C333.96 173.318 354.931 194.29 380.801 194.29Z" fill="#00E37D"/>
<path d="M380.912 142.58C386.853 142.58 391.668 137.764 391.668 131.823C391.668 125.882 386.853 121.067 380.912 121.067C374.971 121.067 370.155 125.882 370.155 131.823C370.155 137.764 374.971 142.58 380.912 142.58Z" fill="white"/>
<path d="M398.091 172.105L363.163 171.862C358.718 171.836 355.73 167.33 357.38 163.182C361.092 153.9 370.205 147.37 380.804 147.449C391.403 147.528 400.413 154.187 403.994 163.512C405.588 167.671 402.539 172.149 398.091 172.105Z" fill="white"/>
<path d="M502.671 60.8341V63.8978H258.934V60.8341C258.934 42.7904 273.561 28.1492 291.619 28.1492H469.986C488.044 28.1492 502.671 42.7904 502.671 60.8341Z" fill="#FE5E5E"/>
<path d="M502.67 64.9464H258.934C258.356 64.9464 257.888 64.4791 257.888 63.9008V60.8341C257.888 42.2355 273.02 27.1036 291.619 27.1036H469.986C488.584 27.1036 503.716 42.2355 503.716 60.8341V63.9008C503.716 64.4762 503.249 64.9464 502.67 64.9464ZM259.98 62.8552H501.625V60.8371C501.625 43.3921 487.431 29.1977 469.986 29.1977H291.619C274.174 29.1977 259.98 43.3921 259.98 60.8371V62.8552Z" fill="#202135"/>
<path d="M286.461 52.6183C289.047 52.6183 291.143 50.5222 291.143 47.9365C291.143 45.3509 289.047 43.2548 286.461 43.2548C283.875 43.2548 281.779 45.3509 281.779 47.9365C281.779 50.5222 283.875 52.6183 286.461 52.6183Z" fill="white"/>
<path d="M301.76 52.6183C304.345 52.6183 306.442 50.5222 306.442 47.9365C306.442 45.3509 304.345 43.2548 301.76 43.2548C299.174 43.2548 297.078 45.3509 297.078 47.9365C297.078 50.5222 299.174 52.6183 301.76 52.6183Z" fill="white"/>
<path d="M317.055 52.6183C319.64 52.6183 321.736 50.5222 321.736 47.9365C321.736 45.3509 319.64 43.2548 317.055 43.2548C314.469 43.2548 312.373 45.3509 312.373 47.9365C312.373 50.5222 314.469 52.6183 317.055 52.6183Z" fill="white"/>
<path d="M272.664 210.263C270.36 218.604 268.289 238.929 267.819 242.857H267.766L258.832 339.297C258.072 352.469 250.648 364.362 239.138 370.831C233.192 374.169 226.658 375.793 220.163 375.793C210.524 375.793 200.98 372.204 193.605 365.264L146.343 319.516L194.952 285.624L216.284 301.416L221.871 236.216H222.382L226.217 157.569C226.661 154.309 228.995 151.806 231.939 150.968C233.168 150.626 234.491 150.577 235.841 150.863C239.337 151.637 241.877 154.66 242.047 158.223L243.37 184.582C243.37 184.582 249.918 182.029 253.963 187.333C253.963 187.333 254.016 187.307 254.095 187.269C254.944 186.784 259.515 184.728 264.203 190.844C265.774 190.426 272.924 194.223 273.461 203.245C273.593 205.313 273.371 207.632 272.664 210.263Z" fill="white"/>
<path d="M220.163 376.836C209.981 376.836 200.296 372.995 192.89 366.024L145.616 320.263C145.391 320.044 145.274 319.737 145.301 319.428C145.327 319.115 145.488 318.832 145.745 318.654L194.353 284.763C194.721 284.506 195.214 284.512 195.574 284.78L215.402 299.459L220.828 236.122C220.858 235.76 221.074 235.451 221.378 235.29L225.171 157.516C225.665 153.871 228.206 150.942 231.652 149.96C233.095 149.56 234.576 149.522 236.06 149.841C240.011 150.714 242.9 154.137 243.093 158.173L244.348 183.203C247.035 182.602 251.235 182.71 254.249 186.039C255.882 185.379 260.283 184.36 264.694 189.775C265.841 189.862 267.267 190.613 268.35 191.393C270.065 192.631 274.095 196.258 274.507 203.18C274.65 205.461 274.373 207.938 273.675 210.532C273.675 210.535 273.675 210.538 273.675 210.54C271.694 217.708 269.892 233.78 269.124 240.644C269.01 241.663 268.92 242.46 268.858 242.977C268.847 243.079 268.818 243.179 268.78 243.269L259.875 339.388C259.092 352.954 251.533 365.06 239.652 371.737C233.714 375.075 226.974 376.836 220.163 376.836ZM147.982 319.644L194.332 364.511C201.339 371.109 210.516 374.745 220.163 374.745C226.617 374.745 233.002 373.074 238.624 369.914C249.88 363.591 257.044 352.122 257.786 339.233L266.723 242.758C266.735 242.635 266.767 242.519 266.817 242.413C266.875 241.914 266.951 241.233 267.042 240.413C267.816 233.503 269.629 217.319 271.651 209.988C272.287 207.614 272.544 205.368 272.416 203.309C272.097 197.964 269.349 194.915 267.74 193.569C266.075 192.178 264.735 191.819 264.445 191.857C264.042 191.965 263.628 191.813 263.371 191.477C259.159 185.984 255.333 187.765 254.609 188.174L254.422 188.271C253.975 188.49 253.432 188.364 253.128 187.967C249.62 183.37 243.98 185.47 243.744 185.557C243.431 185.677 243.078 185.642 242.798 185.458C242.517 185.277 242.339 184.97 242.322 184.634L240.998 158.273C240.849 155.177 238.636 152.551 235.61 151.882C234.465 151.637 233.32 151.666 232.21 151.973C229.57 152.723 227.619 154.975 227.245 157.706L223.416 236.263C223.396 236.657 223.162 236.99 222.829 237.15L217.315 301.501C217.283 301.878 217.049 302.208 216.705 302.365C216.36 302.523 215.957 302.479 215.653 302.252L194.925 286.906L147.982 319.644Z" fill="#202135"/>
<path d="M216.284 310.911C215.706 310.911 215.239 310.444 215.239 309.866V301.413C215.239 300.835 215.706 300.368 216.284 300.368C216.862 300.368 217.33 300.835 217.33 301.413V309.866C217.33 310.444 216.862 310.911 216.284 310.911Z" fill="#202135"/>
<path d="M255.581 213.277C255.581 213.277 259.708 227.88 268.055 215.438C268.055 215.438 270.789 211.91 273.47 203.253C272.939 194.232 265.78 190.411 264.223 190.852L255.581 213.277Z" fill="white"/>
<path d="M261.703 221.504C261.466 221.504 261.23 221.484 260.993 221.446C256.729 220.769 254.781 214.296 254.574 213.56C254.512 213.341 254.524 213.111 254.603 212.9L263.242 190.473C263.359 190.166 263.616 189.932 263.931 189.842C265.114 189.509 266.948 190.391 268.269 191.328C270.006 192.564 274.098 196.194 274.507 203.186C274.516 203.312 274.498 203.437 274.463 203.557C271.759 212.296 268.993 215.923 268.876 216.075C266.475 219.667 264.054 221.504 261.703 221.504ZM256.685 213.318C257.269 215.146 258.966 219.01 261.323 219.384C263.006 219.653 265.021 218.082 267.185 214.854C267.252 214.764 269.854 211.317 272.413 203.125C272.045 197.891 269.337 194.892 267.743 193.563C266.539 192.561 265.506 192.099 264.924 191.936L256.685 213.318Z" fill="#202135"/>
<path d="M244.071 210.654C244.123 210.613 244.179 210.584 244.22 210.549C249.299 206.843 253.963 187.339 253.963 187.339C249.921 182.026 243.376 184.593 243.376 184.593L236.097 204.366C234.307 209.203 239.824 213.601 244.071 210.654Z" fill="white"/>
<path d="M241.1 212.649C239.745 212.649 238.393 212.197 237.228 211.294C234.955 209.536 234.126 206.674 235.113 204.001L242.391 184.231C242.494 183.951 242.713 183.726 242.99 183.618C245.511 182.631 251.218 182.003 254.792 186.705C254.982 186.953 255.049 187.278 254.976 187.581C254.489 189.617 250.07 207.57 244.833 211.39C244.818 211.402 244.719 211.472 244.705 211.484L244.068 210.654L244.664 211.513C243.574 212.272 242.336 212.649 241.1 212.649ZM244.182 185.426L237.079 204.726C236.273 206.91 237.345 208.738 238.51 209.641C239.696 210.558 241.62 211.084 243.475 209.793C243.507 209.769 243.548 209.74 243.563 209.731C247.394 206.931 251.425 193.259 252.824 187.59C249.859 184.135 245.54 185.032 244.182 185.426Z" fill="#202135"/>
<path d="M250.818 215.263C259.337 216.008 264.221 190.849 264.221 190.849C259.516 184.716 254.942 186.79 254.107 187.257C254.107 187.257 242.374 214.524 250.818 215.263Z" fill="white"/>
<path d="M251.189 216.326C251.037 216.326 250.882 216.32 250.728 216.306C249.387 216.189 248.318 215.523 247.638 214.387C244.054 208.388 252.205 189.033 253.146 186.845C253.236 186.635 253.394 186.46 253.596 186.346C254.203 186.004 259.691 183.23 265.05 190.213C265.232 190.452 265.305 190.756 265.249 191.048C264.738 193.677 260.08 216.326 251.189 216.326ZM250.909 214.223C256.972 214.729 261.671 198.163 263.099 191.121C259.425 186.6 256.072 187.508 254.916 188.022C252.398 193.96 246.907 209.092 249.431 213.315C249.773 213.882 250.228 214.162 250.909 214.223Z" fill="#202135"/>
<path d="M222.189 238.155L208.483 207.614C206.672 202.301 209.385 196.507 214.625 194.494L231.915 187.856C233.685 187.175 235.647 188.224 236.071 190.072C237.096 194.576 234.909 199.197 230.779 201.259L222.572 205.353L226.395 209.039C231.544 211.265 232.645 214.308 233.302 221.253" fill="white"/>
<path d="M222.189 239.201C221.789 239.201 221.41 238.97 221.234 238.582L207.528 208.043C205.492 202.082 208.462 195.742 214.251 193.519L231.541 186.88C232.669 186.445 233.927 186.524 234.994 187.094C236.06 187.663 236.825 188.665 237.093 189.842C238.23 194.83 235.826 199.909 231.246 202.193L224.362 205.628L226.985 208.154C232.488 210.593 233.668 214.007 234.345 221.151C234.401 221.727 233.977 222.238 233.402 222.29C232.832 222.334 232.315 221.922 232.263 221.347C231.623 214.588 230.624 212.001 225.98 209.994C225.864 209.945 225.758 209.875 225.668 209.787L221.845 206.101C221.599 205.865 221.486 205.526 221.538 205.19C221.588 204.854 221.801 204.565 222.105 204.413L230.312 200.318C234.024 198.464 235.975 194.348 235.052 190.303C234.918 189.716 234.538 189.217 234.009 188.934C233.481 188.65 232.853 188.612 232.292 188.828L215.002 195.467C210.267 197.287 207.837 202.471 209.473 207.272L223.142 237.72C223.378 238.246 223.142 238.865 222.616 239.101C222.479 239.172 222.333 239.201 222.189 239.201Z" fill="#202135"/>
<path d="M207.931 288.744L197.852 300.473L187.486 312.538L166.174 337.34L126.565 256.605L148.499 253.439C157.05 252.209 165.754 254.394 172.705 259.523L207.931 288.744Z" fill="#00E37D"/>
<g opacity="0.4">
<path d="M197.849 300.473L187.484 312.538C183.649 311.557 180.819 308.081 180.819 303.948C180.819 299.045 184.791 295.073 189.695 295.073C193.357 295.076 196.497 297.295 197.849 300.473Z" fill="white"/>
</g>
<path d="M166.174 338.386C166.131 338.386 166.087 338.383 166.043 338.377C165.695 338.333 165.392 338.114 165.237 337.799L145.041 296.638C144.787 296.121 145 295.493 145.52 295.239C146.04 294.982 146.665 295.198 146.919 295.718L166.417 335.453L206.438 288.866L172.039 260.32C171.595 259.952 171.534 259.292 171.902 258.848C172.273 258.404 172.93 258.343 173.374 258.711L208.591 287.935C208.807 288.116 208.941 288.373 208.965 288.65C208.988 288.931 208.898 289.208 208.717 289.418L166.969 338.015C166.77 338.254 166.478 338.386 166.174 338.386Z" fill="#202135"/>
<path d="M202.344 431.049H62.7952L50.879 296.206C49.6757 282.563 58.7239 270.139 72.0683 267.096C72.0683 267.096 98.0007 260.305 106.839 259.163C113.728 258.281 134.643 255.539 134.643 255.539C147.216 255.153 158.426 263.372 161.852 275.46L185.188 365.121L193.605 397.47L202.344 431.049Z" fill="#00E37D"/>
<path opacity="0.4" d="M193.605 397.47C191.643 398.276 189.496 398.711 187.25 398.711C177.939 398.711 170.38 391.164 170.38 381.842C170.38 373.226 176.847 366.126 185.188 365.121L193.605 397.47Z" fill="white"/>
<path opacity="0.4" d="M112.777 319.416C116.419 319.416 119.372 316.463 119.372 312.821C119.372 309.179 116.419 306.226 112.777 306.226C109.134 306.226 106.182 309.179 106.182 312.821C106.182 316.463 109.134 319.416 112.777 319.416Z" fill="white"/>
<path opacity="0.4" d="M139.205 307.059C145.822 307.059 151.186 301.695 151.186 295.078C151.186 288.462 145.822 283.098 139.205 283.098C132.589 283.098 127.225 288.462 127.225 295.078C127.225 301.695 132.589 307.059 139.205 307.059Z" fill="white"/>
<path opacity="0.4" d="M122.981 364.984C126.22 364.984 128.846 362.358 128.846 359.119C128.846 355.88 126.22 353.255 122.981 353.255C119.742 353.255 117.116 355.88 117.116 359.119C117.116 362.358 119.742 364.984 122.981 364.984Z" fill="white"/>
<path opacity="0.4" d="M85.8157 357.542C88.8369 357.542 91.2861 355.093 91.2861 352.072C91.2861 349.051 88.8369 346.601 85.8157 346.601C82.7945 346.601 80.3453 349.051 80.3453 352.072C80.3453 355.093 82.7945 357.542 85.8157 357.542Z" fill="white"/>
<path opacity="0.4" d="M151.346 335.243C154.322 335.243 156.735 332.831 156.735 329.855C156.735 326.878 154.322 324.466 151.346 324.466C148.37 324.466 145.958 326.878 145.958 329.855C145.958 332.831 148.37 335.243 151.346 335.243Z" fill="white"/>
<path opacity="0.4" d="M125.356 407.976C129.906 407.976 133.595 404.287 133.595 399.737C133.595 395.186 129.906 391.498 125.356 391.498C120.805 391.498 117.116 395.186 117.116 399.737C117.116 404.287 120.805 407.976 125.356 407.976Z" fill="white"/>
<path opacity="0.4" d="M96.435 386.582C98.2287 386.582 99.6828 385.128 99.6828 383.334C99.6828 381.541 98.2287 380.087 96.435 380.087C94.6413 380.087 93.1873 381.541 93.1873 383.334C93.1873 385.128 94.6413 386.582 96.435 386.582Z" fill="white"/>
<path d="M202.338 432.097C201.874 432.097 201.45 431.785 201.327 431.315L160.836 275.726C160.69 275.168 161.025 274.596 161.583 274.453C162.141 274.307 162.714 274.643 162.86 275.2L203.348 430.789C203.494 431.347 203.159 431.919 202.601 432.062C202.513 432.086 202.426 432.097 202.338 432.097Z" fill="#202135"/>
<path d="M110.396 284.587C99.1403 285.651 81.8764 276.056 78.7279 264.85L80.0364 226.543L118.122 230.798L124.159 261.117C124.159 261.12 129.798 280.11 110.396 284.587Z" fill="white"/>
<path d="M108.682 285.712C97.2035 285.712 80.8771 276.366 77.7229 265.136C77.6936 265.034 77.682 264.926 77.6849 264.818L78.9933 226.51C79.0021 226.218 79.1335 225.947 79.3555 225.754C79.5775 225.561 79.8666 225.477 80.1558 225.506L118.238 229.761C118.691 229.811 119.059 230.15 119.146 230.596L125.183 260.916C125.268 261.184 127.739 269.753 123.51 277.008C120.995 281.325 116.661 284.216 110.63 285.61C110.586 285.621 110.539 285.627 110.492 285.633C109.905 285.686 109.301 285.712 108.682 285.712ZM79.779 264.721C82.9158 275.402 99.7708 284.491 110.23 283.554C115.633 282.292 119.491 279.742 121.696 275.966C125.472 269.505 123.18 261.497 123.156 261.415L117.245 231.753L81.0436 227.708L79.779 264.721Z" fill="#202135"/>
<path d="M80.3544 231.005C68.6193 213.119 69.3202 190.587 69.3202 190.587L112.011 167.549C113.042 168.285 140.175 177.634 145.508 210.216C149.877 236.92 130.382 252.227 99.1166 245.898" fill="white"/>
<path d="M112.537 248.371C108.261 248.371 103.699 247.893 98.9063 246.923C98.3397 246.809 97.9746 246.257 98.0886 245.69C98.2025 245.124 98.7574 244.767 99.3211 244.873C115.554 248.161 128.98 245.655 137.117 237.816C143.811 231.37 146.355 221.884 144.474 210.386C141.393 191.553 130.002 176.816 112.406 168.895C112.259 168.831 112.137 168.772 112.029 168.726L70.36 191.212C70.36 194.871 70.8652 214.635 81.2306 230.43C81.5489 230.912 81.4117 231.56 80.9298 231.879C80.4479 232.194 79.7995 232.06 79.4811 231.578C67.6993 213.625 68.2454 191.486 68.2746 190.552C68.2863 190.181 68.4966 189.842 68.8237 189.664L111.515 166.626C111.865 166.436 112.295 166.462 112.619 166.696C112.686 166.731 112.922 166.833 113.264 166.988C131.521 175.206 143.341 190.499 146.539 210.047C148.537 222.252 145.78 232.378 138.569 239.323C132.368 245.293 123.373 248.371 112.537 248.371Z" fill="#202135"/>
<path d="M74.5188 176.182C74.5188 176.182 63.1225 173.945 56.9745 186.857C50.8266 199.769 71.0608 218.505 71.0608 218.505L83.3713 211.022C83.3713 211.022 83.8065 213.344 87.2411 210.237C90.6758 207.129 85.2259 199.451 89.233 196.772C89.233 196.772 138.887 202.882 139.775 175.776C140.476 154.388 130.44 143.734 106 148.629C81.5605 153.524 74.5188 176.182 74.5188 176.182Z" fill="#202135"/>
<path d="M113.962 204.144C111.419 203.846 108.872 205.26 107.502 207.734L113.962 204.144Z" fill="white"/>
<path d="M107.502 208.782C107.329 208.782 107.157 208.741 106.996 208.651C106.491 208.37 106.31 207.734 106.59 207.228C108.17 204.375 111.109 202.757 114.088 203.105C114.66 203.172 115.072 203.692 115.005 204.264C114.938 204.839 114.421 205.24 113.845 205.181C111.719 204.927 109.587 206.133 108.419 208.239C108.226 208.587 107.867 208.782 107.502 208.782Z" fill="#202135"/>
<path d="M130.496 205.099C131.174 206.954 132.742 208.096 134.001 207.637C135.248 207.182 135.71 205.295 135.02 203.429C134.331 201.565 132.76 200.423 131.513 200.879C130.257 201.349 129.807 203.233 130.496 205.099Z" fill="#202135"/>
<path d="M111.539 212.436C112.228 214.299 113.796 215.43 115.055 214.971C116.302 214.515 116.755 212.629 116.074 210.762C115.385 208.899 113.814 207.757 112.558 208.227C111.311 208.686 110.861 210.57 111.539 212.436Z" fill="#202135"/>
<path d="M132.911 196.808C130.368 196.51 127.821 197.923 126.451 200.397L132.911 196.808Z" fill="white"/>
<path d="M126.448 201.443C126.276 201.443 126.104 201.402 125.943 201.311C125.438 201.031 125.254 200.394 125.534 199.889C127.114 197.035 130.058 195.414 133.031 195.765C133.604 195.832 134.016 196.352 133.948 196.924C133.881 197.5 133.358 197.9 132.789 197.841C130.674 197.596 128.534 198.794 127.365 200.899C127.173 201.247 126.816 201.443 126.448 201.443Z" fill="#202135"/>
<path d="M83.979 211.259C83.979 211.259 71.2479 202.152 65.4913 205.33C59.7347 208.508 65.6139 229.679 73.2135 230.497C80.813 231.315 86.1811 227.468 86.1811 227.468" fill="white"/>
<path d="M75.3514 231.657C74.6241 231.657 73.8735 231.619 73.0996 231.537C68.1432 231.002 64.0952 223.491 62.6583 216.347C61.452 210.345 62.3195 205.885 64.9831 204.416C71.1398 201.019 83.2284 209.439 84.5865 210.409C85.0567 210.745 85.1647 211.399 84.8289 211.869C84.493 212.337 83.8388 212.445 83.3715 212.112C79.9777 209.688 70.2432 203.908 65.9966 206.247C64.2559 207.208 63.7389 211.101 64.7115 215.935C65.9849 222.264 69.5539 229.054 73.3245 229.457C80.4041 230.217 85.5211 226.654 85.5707 226.619C86.0409 226.286 86.6952 226.397 87.0281 226.864C87.364 227.331 87.2559 227.985 86.7857 228.318C86.5783 228.467 82.0397 231.657 75.3514 231.657Z" fill="#202135"/>
<path d="M72.4192 221.23C72.0833 221.23 71.7533 221.069 71.5517 220.769C70.6493 219.431 70.0126 217.886 69.7147 216.306C69.4518 214.916 69.6387 213.87 70.2871 213.108C70.8333 212.465 71.6803 212.118 72.647 212.112C73.3187 212.126 74.0051 212.328 74.7498 212.725C75.6786 213.225 76.5139 213.925 77.1623 214.752C77.5186 215.208 77.4398 215.865 76.9841 216.221C76.5314 216.58 75.8714 216.499 75.515 216.043C75.0448 215.441 74.4373 214.933 73.7597 214.571C73.3129 214.331 72.9332 214.212 72.6003 214.206C72.3053 214.212 72.019 214.302 71.8818 214.463C71.6773 214.705 71.6394 215.211 71.7708 215.917C72.019 217.223 72.5418 218.496 73.2866 219.6C73.6108 220.079 73.4823 220.731 73.0033 221.052C72.8222 221.172 72.6207 221.23 72.4192 221.23Z" fill="#202135"/>
<path d="M125.201 210.611C126.334 213.248 127.47 215.882 128.604 218.52C129.287 220.108 129.982 221.764 129.786 223.435C129.591 225.106 128.233 226.8 126.223 227.042" fill="white"/>
<path d="M126.22 228.088C125.697 228.088 125.248 227.699 125.183 227.168C125.113 226.595 125.522 226.075 126.095 226.005C127.634 225.818 128.609 224.478 128.747 223.312C128.913 221.887 128.238 220.319 127.643 218.934L124.24 211.025C124.012 210.494 124.258 209.877 124.786 209.653C125.318 209.422 125.931 209.67 126.159 210.199L129.561 218.108C130.259 219.732 131.054 221.578 130.823 223.555C130.587 225.561 128.974 227.761 126.346 228.079C126.305 228.085 126.261 228.088 126.22 228.088Z" fill="#202135"/>
<path d="M116.702 235.383C115.195 235.383 113.679 234.977 112.388 234.209C110.668 233.181 109.33 231.505 108.714 229.601C108.536 229.051 108.837 228.462 109.386 228.283C109.938 228.108 110.525 228.409 110.703 228.958C111.164 230.383 112.169 231.642 113.457 232.413C114.745 233.181 116.328 233.462 117.806 233.193C118.37 233.085 118.919 233.462 119.024 234.031C119.129 234.598 118.752 235.144 118.186 235.249C117.698 235.34 117.201 235.383 116.702 235.383Z" fill="#202135"/>
<path d="M157.471 423.184C157.471 423.184 184.259 405.569 188.526 410.47C192.793 415.374 186.108 424.542 186.108 424.542L166.464 426.177" fill="white"/>
<path d="M166.464 427.223C165.926 427.223 165.468 426.811 165.424 426.265C165.377 425.69 165.803 425.184 166.379 425.135L185.529 423.54C186.671 421.829 190.959 414.854 187.737 411.154C185.214 408.251 168.853 416.948 158.046 424.054C157.564 424.37 156.916 424.238 156.598 423.753C156.279 423.271 156.414 422.623 156.895 422.305C161.496 419.279 184.68 404.459 189.315 409.778C194.075 415.245 187.247 424.749 186.952 425.152C186.774 425.398 186.496 425.555 186.192 425.579L166.548 427.211C166.522 427.223 166.493 427.223 166.464 427.223Z" fill="#202135"/>
<path d="M179.236 422.132C189.429 422.223 199.794 423.785 204.009 425.649C207.306 427.1 210.303 429.191 212.683 431.902C214.602 434.066 216.15 436.68 215.329 438.888C213.536 443.71 207.84 444.317 207.84 444.317C207.84 444.317 203.766 450.474 194.975 448.106C194.975 448.106 191.283 455.007 182.025 454.058C182.025 454.058 181.353 457.46 176.274 459.286C171.259 461.099 164.977 458.646 164.977 458.646L151.846 454.668L151.858 454.604L55.6399 445.664C38.3672 443.456 25.6098 428.479 26.1735 411.078L23.1974 339.291L76.4203 343.111V396.761L157.477 423.187" fill="white"/>
<path d="M172.068 461C168.19 461 164.787 459.695 164.589 459.619L151.533 455.667C151.481 455.652 151.431 455.632 151.384 455.609L55.5347 446.704C37.5932 444.408 24.535 429.08 25.1221 411.043L22.146 339.332C22.1343 339.034 22.2482 338.745 22.4614 338.538C22.6746 338.33 22.9725 338.228 23.2646 338.246L76.4874 342.066C77.0336 342.107 77.4571 342.559 77.4571 343.108V396.001L157.792 422.191C158.341 422.369 158.642 422.959 158.461 423.508C158.283 424.057 157.693 424.358 157.144 424.177L76.0873 397.751C75.658 397.611 75.3659 397.207 75.3659 396.758V344.081L24.2809 340.416L27.2104 411.031C26.6584 428.061 38.9338 442.472 55.7626 444.621L151.942 453.558C152.138 453.579 152.322 453.649 152.477 453.766L165.272 457.641C165.406 457.691 171.335 459.952 175.912 458.299C180.308 456.721 180.968 453.958 180.994 453.839C181.108 453.322 181.587 452.951 182.124 453.012C190.544 453.874 193.909 447.86 194.049 447.603C194.28 447.18 194.776 446.972 195.241 447.089C203.205 449.239 206.923 443.789 206.961 443.736C207.134 443.476 207.411 443.31 207.721 443.275C207.77 443.269 212.806 442.658 214.342 438.517C215.028 436.674 213.39 434.276 211.894 432.588C209.683 430.068 206.885 428.055 203.582 426.598C199.359 424.732 188.885 423.257 179.224 423.172C178.646 423.166 178.181 422.693 178.187 422.118C178.193 421.542 178.66 421.081 179.233 421.081C179.236 421.081 179.239 421.081 179.242 421.081C189.315 421.171 199.905 422.687 204.426 424.685C208.01 426.262 211.05 428.455 213.463 431.201C216.188 434.273 217.146 436.981 216.304 439.244C214.602 443.824 209.908 445.013 208.407 445.281C207.286 446.645 203.03 450.991 195.454 449.294C194.219 451.087 190.343 455.6 182.738 455.159C182.165 456.453 180.611 458.83 176.625 460.261C175.141 460.804 173.57 461 172.068 461Z" fill="#202135"/>
<path d="M61.326 404.754C60.9318 404.754 60.5521 404.53 60.3768 404.147C60.1344 403.621 60.3652 403.002 60.888 402.76L75.976 395.811C76.5017 395.572 77.1209 395.8 77.3633 396.325C77.6057 396.851 77.375 397.47 76.8522 397.713L61.7641 404.661C61.621 404.722 61.4721 404.754 61.326 404.754Z" fill="#202135"/>
<path d="M208.033 444.195C208.553 441.353 200.463 430.807 183.882 430.9L208.033 444.195Z" fill="white"/>
<path d="M208.036 445.24C207.975 445.24 207.91 445.235 207.846 445.223C207.28 445.118 206.903 444.575 207.005 444.005C207.084 443.576 206.643 442.22 205.124 440.413C203.451 438.418 197.013 431.946 184.113 431.946C184.037 431.946 183.952 431.94 183.882 431.946C183.307 431.946 182.84 431.481 182.837 430.906C182.834 430.328 183.298 429.857 183.876 429.854C183.955 429.854 184.034 429.854 184.113 429.854C197.916 429.854 204.905 436.899 206.725 439.069C208.451 441.125 209.301 443.062 209.058 444.382C208.971 444.887 208.53 445.24 208.036 445.24Z" fill="#202135"/>
<path d="M195.171 447.974C195.171 447.974 195.01 436.677 177.045 436L195.171 447.974Z" fill="white"/>
<path d="M195.174 449.02C194.604 449.02 194.14 448.564 194.128 447.995C194.119 447.571 193.684 437.673 177.007 437.042C176.429 437.022 175.979 436.537 176.003 435.959C176.023 435.38 176.508 434.898 177.086 434.954C195.828 435.661 196.216 447.837 196.219 447.96C196.228 448.538 195.767 449.011 195.188 449.02C195.182 449.02 195.177 449.02 195.174 449.02Z" fill="#202135"/>
<path d="M182.218 453.935C182.218 453.935 181.254 444.697 170.386 444.609L182.218 453.935Z" fill="white"/>
<path d="M182.217 454.984C181.689 454.984 181.236 454.586 181.178 454.049C181.14 453.702 180.135 445.737 170.377 445.658C169.799 445.655 169.334 445.182 169.34 444.604C169.346 444.028 169.813 443.567 170.386 443.567C170.389 443.567 170.392 443.567 170.395 443.567C182.06 443.663 183.248 453.728 183.257 453.83C183.318 454.405 182.901 454.919 182.325 454.981C182.29 454.981 182.252 454.984 182.217 454.984Z" fill="#202135"/>
<path d="M79.6767 342.74L56.9103 344.107L31.3401 345.647L15.4897 346.602L17.8496 312.824C19.6633 294.106 32.7215 278.402 50.7828 273.203L70.4563 267.516L79.6767 342.74Z" fill="#00E37D"/>
<g opacity="0.4">
<path d="M56.937 343.287C56.937 343.558 56.9253 343.833 56.9107 344.107L31.3405 345.646C31.1915 344.875 31.1185 344.096 31.1185 343.287C31.1185 336.149 36.8897 330.377 44.0278 330.377C51.1658 330.377 56.937 336.149 56.937 343.287Z" fill="white"/>
</g>
<g opacity="0.4">
<path d="M63.1079 318.557C66.513 318.557 69.2733 315.797 69.2733 312.392C69.2733 308.987 66.513 306.227 63.1079 306.227C59.7028 306.227 56.9424 308.987 56.9424 312.392C56.9424 315.797 59.7028 318.557 63.1079 318.557Z" fill="white"/>
</g>
<g opacity="0.4">
<path d="M33.1305 312.544C36.6194 312.544 39.4478 309.716 39.4478 306.227C39.4478 302.738 36.6194 299.909 33.1305 299.909C29.6415 299.909 26.8131 302.738 26.8131 306.227C26.8131 309.716 29.6415 312.544 33.1305 312.544Z" fill="white"/>
</g>
<path d="M15.4929 347.647C15.2154 347.647 14.9467 347.536 14.751 347.338C14.5378 347.124 14.4298 346.829 14.4502 346.531L16.8042 312.751C16.8451 312.173 17.3358 311.747 17.9199 311.782C18.4953 311.823 18.9305 312.322 18.8896 312.897L16.6173 345.492L78.5057 341.768L72.8105 295.359C72.7404 294.786 73.1493 294.264 73.7217 294.194C74.2913 294.118 74.817 294.532 74.8871 295.102L80.7167 342.615C80.7517 342.901 80.667 343.19 80.483 343.412C80.299 343.634 80.0303 343.771 79.7412 343.789L15.5513 347.65C15.5338 347.647 15.5133 347.647 15.4929 347.647Z" fill="#202135"/>
<g opacity="0.4">
<path d="M180.345 289.126C182.533 289.126 184.306 287.353 184.306 285.166C184.306 282.978 182.533 281.205 180.345 281.205C178.158 281.205 176.385 282.978 176.385 285.166C176.385 287.353 178.158 289.126 180.345 289.126Z" fill="white"/>
</g>
<path d="M331.538 238.129C330.668 238.313 329.64 238.479 328.454 238.622C330.51 240.892 331.538 242.44 331.538 243.272C331.538 243.917 331.296 244.47 330.814 244.925C330.329 245.381 329.774 245.606 329.143 245.606C328.477 245.606 327.8 245.229 327.11 244.478C326.602 243.818 326.094 243.167 325.586 242.519C325.101 241.911 324.672 241.417 324.298 241.035C321.795 243.62 320.101 244.913 319.216 244.913C318.573 244.913 318.019 244.677 317.545 244.201C317.072 243.728 316.839 243.173 316.839 242.539C316.839 241.958 317.148 241.344 317.764 240.699C318.296 240.237 318.833 239.77 319.38 239.294C319.718 238.99 319.99 238.748 320.197 238.561C318.696 238.059 317.589 237.653 316.877 237.334C315.895 236.899 315.407 236.213 315.407 235.275C315.407 234.656 315.629 234.095 316.07 233.593C316.511 233.094 317.066 232.842 317.732 232.842C318.083 232.842 319.461 233.304 321.871 234.227C321.81 233.094 321.78 232.293 321.78 231.832C321.78 231.172 322.005 230.623 322.452 230.179C322.899 229.738 323.457 229.516 324.123 229.516C324.789 229.516 325.346 229.738 325.802 230.179C326.255 230.623 326.483 231.172 326.483 231.832C326.483 232.635 326.5 233.374 326.538 234.046C328.74 233.689 330.294 233.511 331.202 233.511C331.868 233.511 332.414 233.745 332.844 234.212C333.273 234.679 333.486 235.232 333.486 235.862C333.48 237.101 332.832 237.851 331.538 238.129Z" fill="#00E37D"/>
<path d="M359.377 238.129C358.507 238.313 357.479 238.479 356.293 238.622C358.349 240.892 359.377 242.44 359.377 243.272C359.377 243.918 359.135 244.47 358.653 244.925C358.168 245.381 357.613 245.606 356.982 245.606C356.317 245.606 355.639 245.229 354.95 244.478C354.442 243.818 353.933 243.167 353.425 242.519C352.94 241.911 352.511 241.417 352.137 241.035C349.634 243.62 347.94 244.913 347.055 244.913C346.413 244.913 345.858 244.677 345.385 244.201C344.911 243.728 344.678 243.173 344.678 242.539C344.678 241.958 344.987 241.344 345.604 240.699C346.135 240.238 346.673 239.77 347.219 239.294C347.558 238.99 347.829 238.748 348.037 238.561C346.535 238.059 345.428 237.653 344.716 237.334C343.734 236.899 343.247 236.213 343.247 235.275C343.247 234.656 343.469 234.095 343.91 233.593C344.351 233.094 344.906 232.842 345.572 232.842C345.922 232.842 347.301 233.304 349.71 234.227C349.649 233.094 349.62 232.293 349.62 231.832C349.62 231.172 349.844 230.623 350.291 230.179C350.738 229.738 351.296 229.516 351.962 229.516C352.628 229.516 353.186 229.738 353.641 230.179C354.094 230.623 354.322 231.172 354.322 231.832C354.322 232.635 354.339 233.374 354.377 234.046C356.579 233.689 358.133 233.511 359.042 233.511C359.707 233.511 360.254 233.745 360.683 234.212C361.112 234.68 361.325 235.232 361.325 235.862C361.32 237.101 360.671 237.851 359.377 238.129Z" fill="#00E37D"/>
<path d="M387.217 238.129C386.346 238.313 385.318 238.479 384.133 238.622C386.189 240.892 387.217 242.44 387.217 243.272C387.217 243.918 386.974 244.47 386.492 244.925C386.008 245.381 385.453 245.606 384.822 245.606C384.156 245.606 383.478 245.229 382.789 244.478C382.281 243.818 381.773 243.167 381.264 242.519C380.78 241.911 380.35 241.417 379.976 241.035C377.473 243.62 375.78 244.913 374.895 244.913C374.252 244.913 373.697 244.677 373.224 244.201C372.751 243.728 372.517 243.173 372.517 242.539C372.517 241.958 372.827 241.344 373.443 240.699C373.975 240.238 374.512 239.77 375.058 239.294C375.397 238.99 375.669 238.748 375.876 238.561C374.375 238.059 373.268 237.653 372.555 237.334C371.574 236.899 371.086 236.213 371.086 235.275C371.086 234.656 371.308 234.095 371.749 233.593C372.19 233.094 372.745 232.842 373.411 232.842C373.761 232.842 375.14 233.304 377.549 234.227C377.488 233.094 377.459 232.293 377.459 231.832C377.459 231.172 377.684 230.623 378.131 230.179C378.578 229.738 379.135 229.516 379.801 229.516C380.467 229.516 381.025 229.738 381.481 230.179C381.933 230.623 382.161 231.172 382.161 231.832C382.161 232.635 382.179 233.374 382.217 234.046C384.419 233.689 385.973 233.511 386.881 233.511C387.547 233.511 388.093 233.745 388.522 234.212C388.952 234.68 389.165 235.232 389.165 235.862C389.159 237.101 388.511 237.851 387.217 238.129Z" fill="#00E37D"/>
<path d="M415.057 238.129C414.186 238.313 413.158 238.479 411.973 238.622C414.029 240.892 415.057 242.44 415.057 243.272C415.057 243.918 414.814 244.47 414.332 244.925C413.848 245.381 413.293 245.606 412.662 245.606C411.996 245.606 411.318 245.229 410.629 244.478C410.121 243.818 409.613 243.167 409.104 242.519C408.62 241.911 408.19 241.417 407.816 241.035C405.313 243.62 403.62 244.913 402.735 244.913C402.092 244.913 401.537 244.677 401.064 244.201C400.591 243.728 400.357 243.173 400.357 242.539C400.357 241.958 400.667 241.344 401.283 240.699C401.815 240.238 402.352 239.77 402.898 239.294C403.237 238.99 403.509 238.748 403.716 238.561C402.215 238.059 401.108 237.653 400.395 237.334C399.414 236.899 398.926 236.213 398.926 235.275C398.926 234.656 399.148 234.095 399.589 233.593C400.03 233.094 400.585 232.842 401.251 232.842C401.601 232.842 402.98 233.304 405.389 234.227C405.328 233.094 405.299 232.293 405.299 231.832C405.299 231.172 405.524 230.623 405.971 230.179C406.417 229.738 406.975 229.516 407.641 229.516C408.307 229.516 408.865 229.738 409.321 230.179C409.773 230.623 410.001 231.172 410.001 231.832C410.001 232.635 410.019 233.374 410.057 234.046C412.259 233.689 413.813 233.511 414.721 233.511C415.387 233.511 415.933 233.745 416.362 234.212C416.792 234.68 417.005 235.232 417.005 235.862C416.999 237.101 416.351 237.851 415.057 238.129Z" fill="#00E37D"/>
<path d="M442.896 238.129C442.025 238.313 440.997 238.479 439.811 238.622C441.868 240.892 442.896 242.44 442.896 243.272C442.896 243.918 442.653 244.47 442.171 244.925C441.686 245.381 441.132 245.606 440.501 245.606C439.835 245.606 439.157 245.229 438.468 244.478C437.96 243.818 437.452 243.167 436.943 242.519C436.459 241.911 436.029 241.417 435.655 241.035C433.152 243.62 431.458 244.913 430.573 244.913C429.931 244.913 429.376 244.677 428.903 244.201C428.43 243.728 428.196 243.173 428.196 242.539C428.196 241.958 428.506 241.344 429.122 240.699C429.653 240.238 430.191 239.77 430.737 239.294C431.076 238.99 431.347 238.748 431.555 238.561C430.054 238.059 428.947 237.653 428.234 237.334C427.253 236.899 426.765 236.213 426.765 235.275C426.765 234.656 426.987 234.095 427.428 233.593C427.869 233.094 428.424 232.842 429.09 232.842C429.44 232.842 430.819 233.304 433.228 234.227C433.167 233.094 433.138 232.293 433.138 231.832C433.138 231.172 433.363 230.623 433.809 230.179C434.256 229.738 434.814 229.516 435.48 229.516C436.146 229.516 436.704 229.738 437.159 230.179C437.612 230.623 437.84 231.172 437.84 231.832C437.84 232.635 437.858 233.374 437.895 234.046C440.098 233.689 441.651 233.511 442.56 233.511C443.226 233.511 443.772 233.745 444.201 234.212C444.63 234.68 444.844 235.232 444.844 235.862C444.838 237.101 444.189 237.851 442.896 238.129Z" fill="#00E37D"/>
<path d="M351.18 305.531C350.336 305.934 349.03 306.299 347.266 306.618C345.651 306.916 344.322 307.062 343.285 307.062C341.533 307.062 340.657 306.223 340.657 304.55C340.657 304.681 340.727 303.446 340.87 300.844C341.057 297.462 341.15 293.697 341.15 289.55C341.15 289.106 341.29 288.726 341.574 288.416C341.857 288.107 342.21 287.949 342.64 287.949C343.069 287.949 343.425 288.107 343.712 288.416C343.998 288.729 344.141 289.106 344.141 289.55C344.141 293.706 344.045 297.532 343.852 301.031C343.788 301.656 343.72 302.608 343.647 303.896C345.341 303.864 347.514 303.411 350.169 302.541C350.333 302.485 350.49 302.459 350.642 302.459C351.092 302.459 351.457 302.637 351.738 302.996C351.989 303.315 352.111 303.674 352.111 304.071C352.114 304.74 351.802 305.228 351.18 305.531Z" fill="white"/>
<path d="M360.532 306.688C358.414 306.688 356.612 306.025 355.126 304.699C353.54 303.28 352.745 301.445 352.745 299.191C352.745 296.542 353.508 294.126 355.029 291.942C356.738 289.485 358.89 288.259 361.487 288.259C363.981 288.259 365.853 288.884 367.097 290.128C368.342 291.375 368.964 293.25 368.964 295.753C368.964 298.402 368.263 300.803 366.861 302.955C365.246 305.444 363.134 306.688 360.532 306.688ZM361.487 291.43C359.892 291.43 358.525 292.275 357.389 293.957C356.323 295.531 355.792 297.278 355.792 299.194C355.792 300.487 356.253 301.539 357.176 302.351C358.064 303.131 359.182 303.522 360.535 303.522C362.109 303.522 363.42 302.681 364.472 300.998C365.438 299.462 365.92 297.716 365.92 295.759C365.92 294.123 365.585 292.984 364.913 292.345C364.264 291.734 363.125 291.43 361.487 291.43Z" fill="white"/>
<path d="M383.958 299.1C383.473 301.422 382.492 303.28 381.02 304.676C379.525 306.077 377.772 306.778 375.766 306.778C373.865 306.778 372.436 306.232 371.487 305.137C370.538 304.042 370.062 302.4 370.062 300.21C370.062 298.215 370.512 296.171 371.414 294.074C372.314 291.977 373.473 290.277 374.89 288.977C375.883 288.066 376.949 287.607 378.088 287.607C378.78 287.607 379.723 287.879 380.918 288.425C382.334 289.071 383.041 289.763 383.041 290.496C383.041 290.916 382.895 291.293 382.603 291.623C382.311 291.953 381.949 292.12 381.52 292.12C381.306 292.12 380.833 291.898 380.097 291.46C379.364 291.019 378.695 290.8 378.088 290.8C377.442 290.8 376.575 291.556 375.483 293.066C373.888 295.265 373.091 297.646 373.091 300.21C373.091 301.513 373.266 302.397 373.616 302.865C373.987 303.355 374.706 303.601 375.772 303.601C376.867 303.601 377.828 303.262 378.657 302.584C379.536 301.869 380.188 300.823 380.608 299.451C378.949 299.591 377.504 299.962 376.274 300.56C376.052 300.668 375.83 300.724 375.608 300.724C375.164 300.724 374.796 300.543 374.504 300.187C374.238 299.865 374.107 299.503 374.107 299.1C374.107 297.908 375.401 297.073 377.991 296.597C379.449 296.334 381.152 296.2 383.097 296.2C383.526 296.2 383.885 296.352 384.174 296.656C384.464 296.959 384.61 297.333 384.61 297.777C384.601 298.347 384.388 298.788 383.958 299.1Z" fill="white"/>
<path d="M394.598 292.155C394.257 292.155 393.316 292.047 391.777 291.828C391.678 293.262 391.625 295.169 391.625 297.546L391.616 302.795C392.566 302.771 393.535 302.76 394.522 302.76C394.952 302.76 395.308 302.917 395.588 303.227C395.872 303.539 396.012 303.913 396.012 304.351C396.012 304.787 395.869 305.158 395.58 305.467C395.29 305.774 394.928 305.929 394.49 305.929C394.081 305.929 393.468 305.937 392.65 305.958C391.832 305.978 391.219 305.987 390.81 305.987C390.328 305.987 389.604 306.054 388.64 306.191C387.676 306.329 386.952 306.396 386.47 306.396C386.032 306.396 385.667 306.241 385.381 305.934C385.092 305.628 384.948 305.254 384.948 304.819C384.948 304.384 385.1 304.01 385.401 303.697C385.702 303.385 386.085 303.23 386.54 303.23C387.06 303.23 387.744 303.172 388.593 303.055C388.579 302.135 388.573 300.373 388.573 297.768C388.573 295.648 388.643 293.627 388.786 291.699L386.458 291.769C386.029 291.769 385.67 291.617 385.381 291.314C385.092 291.01 384.946 290.63 384.946 290.18C384.946 289.719 385.086 289.345 385.36 289.059C385.617 288.793 385.933 288.641 386.307 288.603C386.917 288.542 387.977 288.51 389.487 288.51C390.845 288.51 392.595 288.673 394.736 289.001C395.588 289.132 396.015 289.669 396.015 290.613C396.015 291.112 395.851 291.506 395.521 291.796C395.247 292.035 394.94 292.155 394.598 292.155Z" fill="white"/>
<path d="M413.529 303.098C413.529 303.487 413.468 304.103 413.348 304.944C413.205 305.952 412.682 306.454 411.783 306.454C411.28 306.454 410.717 306.148 410.089 305.531C407.334 302.827 404.23 299.036 400.769 294.155C400.725 296.182 400.705 297.424 400.705 297.885C400.705 298.501 400.716 299.427 400.743 300.669C400.769 301.907 400.781 302.836 400.781 303.452C400.781 305.75 400.266 306.901 399.235 306.901C398.713 306.901 398.295 306.726 397.98 306.375C397.699 306.063 397.562 305.686 397.562 305.242C397.562 304.93 397.585 304.46 397.632 303.829C397.679 303.198 397.702 302.725 397.702 302.415C397.702 301.957 397.717 301.264 397.746 300.347C397.775 299.427 397.79 298.738 397.79 298.277C397.79 297.786 397.778 297.047 397.758 296.057C397.737 295.067 397.726 294.325 397.726 293.837C397.726 293.37 397.682 292.672 397.597 291.743C397.512 290.814 397.469 290.116 397.469 289.649C397.469 289.182 397.653 288.764 398.021 288.399C398.389 288.034 398.809 287.85 399.282 287.85C399.811 287.85 400.398 288.349 401.04 289.345C404.288 294.395 407.489 298.516 410.652 301.702C410.658 301.454 410.664 300.858 410.664 299.927C410.664 296.083 410.629 293.492 410.556 292.152C410.541 291.927 410.495 291.506 410.416 290.89C410.346 290.344 410.308 289.918 410.308 289.605C410.308 288.53 410.83 287.99 411.873 287.99C413.038 287.99 413.62 289.95 413.62 293.869C413.62 293.954 413.614 294.57 413.599 295.718C413.55 299.67 413.529 302.132 413.529 303.098Z" fill="white"/>
<path d="M188.193 158.015C152.044 164.485 101.354 96.0161 91.6424 57.8958C90.8422 54.7561 92.4894 51.4909 95.524 50.3547C119.482 41.3884 148.37 16.7381 157.415 8.69468C159.168 7.13506 161.641 6.69404 163.826 7.54687C175.103 11.9541 210.775 25.062 236.357 25.1525C239.614 25.1642 242.304 27.673 242.61 30.9149C246.34 70.1479 226.217 151.207 188.193 158.015Z" fill="white"/>
<path d="M183.173 159.499C162.319 159.499 140.739 138.561 129.214 125.366C111.088 104.612 95.5796 77.5986 90.6262 58.153C89.6857 54.4672 91.6338 50.6937 95.1561 49.3765C119.088 40.4188 148.326 15.3773 156.717 7.91502C158.774 6.08962 161.645 5.57558 164.203 6.57736C174.671 10.6663 210.814 24.0194 236.357 24.1071C240.151 24.1217 243.288 27.0073 243.65 30.8187C245.616 51.4968 240.949 82.1023 232.041 106.98C221.123 137.469 205.615 155.962 188.374 159.047C186.651 159.353 184.913 159.499 183.173 159.499ZM161.548 8.16327C160.301 8.16327 159.08 8.61597 158.108 9.47756C149.649 17.0011 120.16 42.2501 95.8892 51.3333C93.3686 52.2767 91.9784 54.987 92.6531 57.636C101.993 94.2989 152.044 163.416 188.006 156.988C225.233 150.326 245.292 70.1919 241.571 31.0173C241.311 28.2807 239.068 26.2099 236.355 26.1982C210.448 26.1077 173.999 12.6465 163.447 8.52251C162.827 8.2801 162.185 8.16327 161.548 8.16327Z" fill="#202135"/>
<path d="M186.116 146.131C178.181 147.551 161.347 140.544 140.014 116.119C125.215 99.1733 111.897 77.4905 105.431 60.3259C127.438 49.7765 150.158 31.6656 162.88 20.7424C178.605 26.5749 206.199 35.6815 230.501 37.942C230.49 56.8883 225.992 81.9386 218.673 102.383C209.721 127.375 197.247 144.14 186.116 146.131Z" fill="#00E37D"/>
<path d="M174.574 100.973C187.227 100.973 197.483 90.7156 197.483 78.063C197.483 65.4104 187.227 55.1535 174.574 55.1535C161.921 55.1535 151.664 65.4104 151.664 78.063C151.664 90.7156 161.921 100.973 174.574 100.973Z" fill="white"/>
<path d="M164.408 81.5998L171.736 86.7051L183.818 69.3536" fill="white"/>
<path d="M172.778 92.526L162.016 85.0316L166.797 78.1681L170.693 80.8814L180.384 66.9645L187.25 71.7456L172.778 92.526Z" fill="#202135"/>
<path d="M528.65 343.672L521.561 341.286L529.92 316.446C533.545 305.675 527.73 293.966 516.961 290.341C506.19 286.717 494.481 292.532 490.857 303.3L482.498 328.14L475.409 325.754L483.768 300.914C488.707 286.235 504.668 278.311 519.347 283.25C534.027 288.189 541.95 304.15 537.011 318.829L528.65 343.672Z" fill="#202135"/>
<path d="M538.993 340.492L523.555 386.375C521.867 391.39 516.443 394.082 511.428 392.394L459.672 374.979C454.657 373.29 451.964 367.867 453.652 362.852L469.091 316.969C470.776 311.963 476.2 309.27 481.214 310.958L532.971 328.374C537.986 330.059 540.679 335.483 538.993 340.492Z" fill="#00E37D"/>
<path d="M498.471 353.891C503.225 353.891 507.079 350.038 507.079 345.284C507.079 340.531 503.225 336.677 498.471 336.677C493.718 336.677 489.864 340.531 489.864 345.284C489.864 350.038 493.718 353.891 498.471 353.891Z" fill="#F4F7FC"/>
<path d="M496.789 366.62L486.92 363.299C485.454 362.805 484.96 360.98 485.976 359.814L498.351 345.652L499.645 364.414C499.75 365.957 498.255 367.113 496.789 366.62Z" fill="#F4F7FC"/>
<path d="M581.29 165.776L584.713 155.355L579.284 153.57C579.649 150.258 579.371 146.97 578.545 143.85L583.65 141.266L578.699 131.476L573.594 134.06C571.576 131.54 569.09 129.37 566.205 127.702L567.989 122.273L557.563 118.85L555.778 124.279C552.466 123.914 549.18 124.186 546.058 125.018L543.479 119.91L533.689 124.857L536.268 129.966C533.754 131.987 531.578 134.469 529.91 137.355L524.481 135.57L521.058 145.991L526.487 147.776C526.119 151.094 526.397 154.382 527.226 157.496L522.121 160.08L527.068 169.87L532.174 167.286C534.192 169.806 536.677 171.973 539.563 173.644L537.778 179.079L548.205 182.502L549.99 177.067C553.302 177.432 556.587 177.16 559.709 176.328L562.288 181.436L572.078 176.486L569.499 171.377C572.014 169.362 574.187 166.877 575.858 163.988L581.29 165.776ZM550.544 163.074C542.381 161.491 537.954 152.738 541.514 145.217C543.941 140.094 549.671 137.197 555.235 138.281C563.401 139.872 567.823 148.626 564.26 156.137C561.833 161.257 556.105 164.152 550.544 163.074Z" fill="#FE5E5E"/>
<path d="M26.5676 245.667L18.3519 250.84C14.4966 253.243 9.42931 252.093 7.01686 248.261L1.84441 240.045C-0.565123 236.213 0.58561 231.146 4.41749 228.736L12.6391 223.537C16.4681 221.128 21.5354 222.279 23.9741 226.116L29.1407 234.358C31.5503 238.187 30.3995 243.255 26.5676 245.667Z" fill="#FE5E5E"/>
<path d="M59.6791 151.324L55.5697 153.909C53.6421 155.112 51.107 154.534 49.9008 152.621L47.316 148.515C46.1098 146.599 46.6881 144.067 48.6011 142.86L52.7133 140.261C54.6293 139.055 57.1615 139.633 58.3823 141.549L60.9642 145.67C62.1704 147.586 61.595 150.118 59.6791 151.324Z" fill="#FE5E5E"/>
<path d="M181.476 212.366L177.366 214.951C175.439 216.154 172.903 215.576 171.697 213.663L169.113 209.553C167.906 207.637 168.485 205.105 170.398 203.899L174.51 201.3C176.426 200.093 178.958 200.672 180.179 202.588L182.761 206.709C183.967 208.624 183.389 211.16 181.476 212.366Z" fill="#202135"/>
<path d="M66.2005 75.2065L64.2203 76.4537C63.2915 77.0319 62.0678 76.7545 61.4895 75.8316L60.2424 73.8514C59.6612 72.9285 59.9386 71.7076 60.8615 71.1264L62.8447 69.8735C63.7676 69.2923 64.9884 69.5697 65.5755 70.4955L66.8196 72.4816C67.4009 73.4045 67.1234 74.6253 66.2005 75.2065Z" fill="#00E37D"/>
<path d="M303.34 5.63685L301.359 6.88396C300.431 7.46225 299.207 7.1848 298.629 6.26188L297.381 4.28168C296.8 3.35876 297.078 2.13792 298.001 1.55671L299.984 0.303756C300.907 -0.277452 302.127 1.09325e-05 302.714 0.925855L303.959 2.9119C304.543 3.83482 304.265 5.05565 303.34 5.63685Z" fill="#00E37D"/>
</svg>
